<svg width="29" height="29" fill="none" xmlns="http://www.w3.org/2000/svg"><path d="M14.5 0C6.496 0 0 6.496 0 14.5S6.496 29 14.5 29 29 22.504 29 14.5 22.504 0 14.5 0Zm6.728 9.86c-.218 2.291-1.16 7.859-1.639 10.425-.202 1.088-.608 1.45-.985 1.494-.841.073-1.48-.551-2.291-1.087-1.276-.841-2.001-1.364-3.234-2.175-1.436-.943-.508-1.465.319-2.306.218-.217 3.93-3.596 4.002-3.9a.29.29 0 0 0-.072-.261c-.087-.073-.203-.044-.305-.03-.13.03-2.16 1.378-6.119 4.046-.58.392-1.102.595-1.566.58-.522-.015-1.508-.29-2.247-.537-.914-.29-1.625-.449-1.567-.957.03-.26.392-.521 1.074-.797 4.234-1.841 7.047-3.06 8.453-3.64 4.031-1.681 4.857-1.972 5.408-1.972.117 0 .392.03.566.175a.576.576 0 0 1 .203.391c-.015.087.014.348 0 .551Z" fill="#fff"/></svg>