<svg width="62" height="63" viewBox="0 0 62 63" fill="none" xmlns="http://www.w3.org/2000/svg">
<path fill-rule="evenodd" clip-rule="evenodd" d="M3.22266 31.5C3.22266 15.9152 15.6338 3.28125 30.9437 3.28125C46.2537 3.28125 58.6648 15.9152 58.6648 31.5C58.6648 47.0848 46.2537 59.7188 30.9437 59.7188C15.6338 59.7188 3.22266 47.0848 3.22266 31.5ZM30.9437 7.21875C17.7701 7.21875 7.09071 18.0898 7.09071 31.5C7.09071 44.9102 17.7701 55.7812 30.9437 55.7812C44.1174 55.7812 54.7967 44.9102 54.7967 31.5C54.7967 18.0898 44.1174 7.21875 30.9437 7.21875Z" fill="url(#paint0_linear_1128_1452)"/>
<path fill-rule="evenodd" clip-rule="evenodd" d="M24.8205 20.7013C25.4189 20.3496 26.1562 20.3496 26.7546 20.7013L42.2268 29.7945C42.8252 30.1462 43.1938 30.7961 43.1938 31.4995C43.1938 32.2029 42.8252 32.8528 42.2268 33.2045L26.7546 42.2978C26.1562 42.6494 25.4189 42.6494 24.8205 42.2978C24.2221 41.9461 23.8535 41.2961 23.8535 40.5928V22.4062C23.8535 21.7029 24.2221 21.0529 24.8205 20.7013ZM27.7216 25.8162V37.1828L37.3917 31.4995L27.7216 25.8162Z" fill="url(#paint1_linear_1128_1452)"/>
<defs>
<linearGradient id="paint0_linear_1128_1452" x1="3.22266" y1="3.28125" x2="59.341" y2="3.96185" gradientUnits="userSpaceOnUse">
<stop stop-color="#73E0A9"/>
<stop offset="1" stop-color="#5B68DF"/>
</linearGradient>
<linearGradient id="paint1_linear_1128_1452" x1="23.8535" y1="20.4375" x2="43.4303" y2="20.6488" gradientUnits="userSpaceOnUse">
<stop stop-color="#73E0A9"/>
<stop offset="1" stop-color="#5B68DF"/>
</linearGradient>
</defs>
</svg>
